<?xml version="1.0" standalone="no"?>
<!DOCTYPE svg PUBLIC "-//W3C//DTD SVG 20010904//EN"
 "http://www.w3.org/TR/2001/REC-SVG-20010904/DTD/svg10.dtd">
<svg version="1.0" xmlns="http://www.w3.org/2000/svg"
 width="1000.000000pt" height="1000.000000pt" viewBox="0 0 1000.000000 1000.000000"
 preserveAspectRatio="xMidYMid meet">
<metadata>
Created by potrace 1.14, written by Peter Selinger 2001-2017
</metadata>
<g transform="translate(0.000000,1000.000000) scale(0.100000,-0.100000)"
fill="#000000" stroke="none">
<path d="M5627 9691 c-11 -8 -17 -9 -13 -3 10 17 -10 15 -27 -3 -12 -11 -17
-12 -20 -2 -3 7 -6 4 -6 -6 -1 -10 -5 -16 -10 -13 -13 8 -42 -4 -35 -15 3 -5
-2 -6 -10 -3 -9 4 -16 1 -16 -6 0 -9 -4 -9 -17 1 -10 7 -15 10 -11 5 8 -10
-14 -36 -24 -29 -5 2 -8 -4 -8 -14 0 -15 -2 -16 -10 -3 -7 11 -10 11 -10 2 0
-7 -4 -10 -10 -7 -5 3 -10 2 -10 -4 0 -5 6 -12 13 -15 6 -3 1 -3 -12 0 -13 3
-21 2 -18 -2 6 -11 -18 -35 -27 -27 -3 4 -6 1 -6 -6 0 -7 -4 -9 -10 -6 -5 3
-7 0 -4 -9 6 -16 -28 -40 -40 -28 -4 3 -4 -2 0 -12 5 -13 4 -17 -4 -12 -8 5
-10 2 -6 -8 4 -11 0 -16 -10 -16 -9 0 -16 -5 -16 -11 0 -5 6 -7 13 -3 6 3 -1
-5 -17 -18 -19 -16 -27 -30 -23 -41 4 -11 2 -14 -8 -10 -8 3 -12 10 -8 16 3 6
1 7 -5 3 -8 -5 -8 -15 -1 -33 8 -23 8 -24 -6 -13 -11 9 -15 9 -15 1 0 -7 -5
-9 -12 -5 -6 4 -8 3 -4 -4 3 -6 2 -14 -4 -17 -8 -5 -8 -11 0 -20 13 -16 -3
-30 -22 -19 -10 5 -10 4 -2 -5 14 -15 6 -53 -9 -44 -6 3 -7 1 -3 -6 4 -6 2
-19 -5 -27 -10 -13 -10 -17 2 -25 11 -7 10 -9 -6 -9 -17 0 -17 -2 -5 -10 8 -5
10 -10 4 -10 -6 0 -10 -12 -9 -27 1 -16 -3 -34 -8 -41 -7 -8 -7 -16 -1 -20 11
-8 12 -38 1 -48 -4 -4 -2 -13 5 -21 6 -7 8 -16 5 -20 -4 -3 1 -12 11 -20 16
-14 16 -14 -2 -9 -15 5 -17 4 -8 -7 7 -8 8 -18 4 -22 -4 -5 -1 -5 6 -1 11 6
17 -5 13 -26 0 -5 4 -8 9 -8 6 0 10 -7 10 -16 0 -8 5 -12 10 -9 6 3 10 1 10
-4 0 -6 -6 -11 -12 -11 -9 0 -8 -3 2 -10 8 -5 11 -12 8 -16 -4 -3 2 -16 13
-27 12 -13 16 -24 10 -30 -7 -7 -6 -18 1 -31 10 -18 9 -19 -4 -9 -13 11 -15 8
-13 -17 2 -28 -15 -50 -54 -75 -10 -6 -12 -4 -6 4 5 9 2 10 -11 3 -50 -26 -87
-39 -110 -36 -13 1 -24 -1 -24 -5 0 -5 -16 -7 -35 -6 -21 2 -35 -2 -35 -9 0
-6 -5 -4 -10 4 -8 12 -10 12 -10 -5 0 -14 -3 -16 -8 -7 -5 7 -16 10 -25 6 -9
-3 -15 -10 -12 -14 3 -5 -3 -7 -12 -6 -19 3 -45 -9 -76 -33 -9 -8 -20 -11 -24
-8 -3 4 -11 2 -18 -3 -6 -5 -20 -11 -31 -13 -10 -2 -28 -8 -39 -14 -11 -6 -29
-9 -40 -7 -10 1 -24 -1 -31 -7 -6 -5 -30 -10 -53 -12 -22 -1 -41 -6 -41 -12 0
-5 -4 -4 -9 3 -6 11 -10 10 -16 -5 -7 -17 -8 -17 -15 2 -7 17 -9 17 -9 3 -1
-11 -9 -18 -21 -18 -14 0 -18 -5 -13 -17 6 -16 5 -16 -10 -4 -16 12 -17 12
-10 -5 6 -17 5 -18 -12 -4 -17 14 -18 14 -7 -7 10 -18 9 -21 -6 -18 -9 1 -25
-1 -34 -6 -9 -5 -34 -11 -55 -13 -21 -3 -51 -7 -68 -10 -16 -3 -44 -8 -61 -10
-69 -10 -275 -60 -383 -93 -64 -19 -120 -36 -126 -38 -5 -1 -23 -7 -40 -14
-36 -15 -83 -33 -150 -58 -27 -10 -51 -21 -53 -25 -2 -5 -10 -8 -18 -8 -16 0
-301 -143 -369 -185 -22 -13 -56 -34 -75 -45 -45 -26 -74 -45 -145 -95 -31
-22 -64 -44 -73 -50 -18 -12 -27 -18 -112 -86 -122 -97 -175 -144 -300 -269
-119 -119 -233 -242 -237 -255 -1 -4 -15 -23 -32 -43 -56 -69 -78 -97 -116
-152 -78 -111 -101 -146 -147 -225 -26 -44 -51 -84 -55 -90 -38 -45 -253 -529
-253 -568 0 -7 -4 -17 -8 -22 -7 -8 -31 -76 -37 -105 0 -3 -6 -21 -13 -40 -6
-19 -14 -49 -17 -67 -3 -18 -9 -43 -15 -57 -5 -15 -7 -26 -4 -26 4 0 2 -6 -4
-12 -5 -7 -13 -35 -17 -63 -5 -27 -10 -54 -11 -60 -6 -21 -12 -52 -18 -98 -4
-27 -10 -59 -12 -70 -3 -12 -7 -40 -9 -62 -3 -22 -7 -56 -10 -75 -24 -158 -25
-658 -1 -790 2 -14 7 -50 11 -80 10 -76 12 -94 30 -185 9 -44 18 -93 20 -110
3 -16 10 -45 16 -63 6 -18 12 -39 13 -45 7 -32 21 -81 49 -172 17 -55 31 -102
32 -105 1 -3 7 -18 14 -35 6 -16 16 -43 22 -60 42 -114 168 -387 182 -393 4
-2 7 -8 7 -13 0 -8 70 -134 113 -203 36 -58 122 -182 131 -188 6 -4 7 -8 3 -8
-5 0 -2 -6 5 -14 7 -8 24 -29 38 -46 102 -133 189 -232 315 -363 38 -40 206
-194 250 -229 87 -71 176 -138 184 -138 5 0 11 -4 13 -8 4 -12 185 -132 198
-132 5 0 10 -4 10 -8 0 -4 22 -19 50 -33 27 -13 50 -27 50 -30 0 -4 11 -10 25
-13 14 -4 25 -11 25 -16 0 -6 8 -10 19 -10 10 0 24 -7 31 -15 7 -8 16 -15 21
-15 5 0 52 -21 106 -46 159 -75 178 -84 255 -110 40 -14 79 -31 87 -37 8 -7
15 -10 15 -8 1 4 128 -33 187 -55 20 -7 39 -10 43 -7 3 3 11 1 18 -4 7 -6 42
-16 78 -24 80 -17 70 -14 100 -22 14 -4 42 -9 62 -11 21 -3 41 -6 45 -9 4 -3
32 -7 61 -11 28 -3 67 -9 85 -11 207 -33 711 -39 850 -10 12 2 49 6 82 10 75
7 206 30 315 56 47 12 94 22 105 23 12 1 25 5 30 8 14 8 127 41 143 41 6 0 12
5 12 10 0 6 3 8 6 5 3 -4 37 5 76 18 39 13 74 22 78 19 10 -6 6 -87 -5 -105
-5 -9 -4 -15 3 -18 9 -3 9 -9 0 -25 -6 -12 -11 -23 -10 -24 1 -2 2 -10 2 -19
0 -9 -5 -12 -12 -8 -9 5 -9 2 1 -9 13 -17 12 -18 -11 -21 -6 0 -13 -7 -16 -15
-3 -9 0 -11 8 -6 8 5 11 4 6 -3 -4 -6 -13 -9 -20 -6 -8 3 -17 0 -21 -6 -5 -8
-14 -6 -32 5 -14 10 -23 13 -19 7 3 -5 -1 -13 -10 -16 -8 -3 -13 -2 -10 3 3 5
-1 11 -9 14 -10 4 -12 1 -9 -11 3 -9 -1 -6 -9 7 -11 19 -15 20 -20 8 -6 -15
-30 -17 -43 -4 -4 3 4 4 16 2 12 -2 20 -1 16 2 -10 10 -56 11 -50 1 3 -4 -1
-8 -9 -8 -8 0 -20 -7 -27 -15 -10 -12 -16 -13 -28 -3 -11 9 -14 9 -9 1 4 -7
-1 -14 -12 -18 -11 -3 -22 -13 -26 -22 -5 -14 -2 -14 17 3 l23 19 -18 -21 c-9
-11 -14 -24 -10 -29 5 -4 -2 -2 -14 4 -13 6 -24 8 -24 4 -1 -4 -2 -15 -3 -23
0 -8 -6 -15 -13 -15 -6 0 -15 -3 -19 -7 -4 -5 -2 -8 4 -8 7 0 12 -5 12 -11 0
-6 -7 -9 -14 -6 -10 4 -13 1 -9 -9 3 -7 0 -14 -7 -14 -6 0 -8 -5 -5 -10 3 -6
-2 -10 -12 -10 -15 0 -16 -2 -3 -10 11 -7 11 -10 2 -10 -7 0 -10 -4 -7 -10 3
-5 -2 -10 -12 -11 -13 0 -14 -2 -4 -6 10 -4 8 -9 -10 -20 l-24 -14 25 6 25 6
-25 -15 c-14 -9 -20 -15 -13 -16 17 0 10 -28 -13 -45 -13 -10 -14 -14 -5 -15
11 0 11 -3 0 -17 -10 -11 -10 -14 -2 -9 10 5 11 1 4 -16 -4 -13 -6 -36 -4 -51
3 -22 1 -27 -9 -21 -10 6 -10 4 1 -9 7 -9 10 -17 6 -17 -4 0 -1 -8 6 -17 10
-11 10 -14 2 -9 -7 4 -13 2 -13 -3 0 -6 5 -11 12 -11 9 0 9 -3 0 -12 -7 -7
-12 -17 -12 -22 0 -6 5 -4 11 4 9 12 10 11 6 -7 -4 -16 -1 -20 10 -16 13 5 13
2 4 -15 -12 -22 -5 -28 24 -22 6 1 7 -2 3 -5 -4 -4 -2 -17 4 -29 7 -11 13 -27
14 -34 4 -20 16 -29 21 -14 3 6 9 12 15 12 6 0 3 -10 -8 -22 -10 -12 -13 -18
-5 -13 10 6 13 4 9 -7 -4 -8 0 -15 8 -15 7 0 11 4 8 9 -3 4 0 8 5 8 6 0 11 -7
11 -15 0 -9 6 -12 17 -8 12 5 15 2 10 -10 -3 -9 -2 -17 3 -17 6 0 10 8 10 18
0 14 2 15 10 2 5 -8 19 -15 32 -15 13 0 29 -4 37 -9 10 -6 12 -6 7 2 -4 7 -2
12 3 12 6 0 11 -5 11 -12 0 -6 7 -3 16 8 8 10 13 13 9 6 -4 -7 0 -12 9 -12 9
0 16 6 16 13 0 9 2 9 9 -1 7 -11 9 -10 14 3 6 13 11 14 28 4 17 -9 20 -8 14 2
-6 9 -3 11 9 6 10 -4 15 -3 11 3 -3 6 3 10 15 10 12 0 18 4 15 10 -4 6 -3 9 2
8 4 -1 20 6 35 16 15 10 33 14 39 10 7 -4 9 -3 5 4 -3 5 0 13 6 15 10 4 10 6
1 6 -7 1 -13 6 -13 12 0 5 4 8 8 5 11 -7 37 11 37 26 0 7 9 12 19 10 12 -2 16
1 10 9 -5 9 -2 10 9 6 10 -3 17 -2 17 3 0 6 -5 10 -11 10 -5 0 -7 5 -4 10 4 6
11 8 16 5 5 -4 9 -1 9 5 0 6 5 8 10 5 9 -5 15 15 11 37 0 4 6 5 14 2 8 -4 15
-1 15 6 0 6 5 8 12 4 7 -4 8 -3 4 4 -4 6 -14 8 -22 5 -9 -3 -4 6 10 20 17 17
24 32 19 43 -5 13 -3 15 8 9 12 -7 12 -6 1 7 -10 13 -10 19 2 31 8 8 12 17 9
21 -3 3 0 13 8 23 12 15 12 16 -1 8 -8 -4 -4 5 10 21 14 15 17 22 8 15 -21
-16 -22 -5 -4 29 10 18 11 30 4 44 -8 14 -7 17 3 11 9 -6 11 -3 6 8 -3 10 -2
17 3 17 5 0 7 6 4 14 -3 8 0 17 5 21 6 3 9 11 6 16 -4 5 -2 9 3 9 5 0 8 13 7
29 -1 21 2 28 12 24 7 -3 16 2 19 11 3 9 12 16 20 16 8 0 14 5 14 11 0 5 -5 7
-12 3 -7 -4 -8 -3 -4 4 4 7 14 12 22 12 9 0 12 -5 8 -12 -4 -7 -3 -8 5 -4 6 4
9 12 6 17 -4 5 -2 9 4 9 6 0 8 6 5 14 -3 7 2 16 10 19 9 4 14 1 12 -6 -1 -7
-1 -9 1 -4 3 4 9 4 15 1 6 -4 6 2 -1 14 -14 26 -14 42 -1 22 8 -12 11 -11 16
8 5 18 9 20 15 10 6 -9 9 -8 9 8 0 11 7 29 16 40 15 18 15 18 5 -3 -8 -16 -8
-24 1 -29 7 -4 8 -3 4 4 -4 7 -3 12 1 12 5 0 10 10 10 22 1 13 8 27 15 33 7 5
20 19 28 30 l15 20 -24 -20 -24 -20 14 23 c8 12 17 22 21 22 4 0 4 7 1 17 -5
12 -3 14 8 8 12 -8 12 -6 0 8 -11 14 -11 18 3 23 12 4 13 11 6 24 -7 13 -6 20
3 23 9 4 9 6 0 6 -7 1 -10 8 -6 18 4 10 2 14 -4 10 -6 -4 -14 0 -17 9 -4 9 -2
13 5 8 7 -4 10 -1 7 7 -3 8 -11 13 -18 11 -10 -2 -10 1 1 14 9 12 9 15 2 10
-9 -5 -13 0 -13 13 0 12 -6 21 -12 21 -10 0 -9 3 1 9 11 7 9 10 -8 16 -22 7
-22 7 9 30 17 13 45 29 61 35 16 7 29 16 29 21 0 5 5 9 12 9 9 0 234 144 248
160 3 3 32 25 65 50 63 47 90 68 109 85 6 6 42 37 81 70 38 33 86 77 106 97
37 37 37 37 43 14 3 -14 3 -32 0 -40 -4 -9 -1 -16 6 -16 10 0 9 -4 -1 -16 -10
-13 -10 -17 1 -24 10 -6 11 -12 4 -22 -6 -7 -9 -25 -8 -41 2 -15 -1 -25 -6
-22 -4 3 -6 -4 -3 -16 4 -12 0 -25 -8 -30 -10 -6 -10 -9 -2 -9 7 0 10 -7 7
-15 -4 -8 -11 -12 -16 -9 -6 4 -5 -3 1 -15 10 -18 9 -21 -6 -21 -15 0 -15 -2
3 -15 13 -10 14 -14 4 -13 -11 2 -14 -6 -13 -30 1 -18 -3 -30 -8 -27 -5 4 -5
-5 1 -20 13 -33 12 -36 -1 -33 -6 2 -13 -7 -15 -20 -3 -16 0 -21 8 -16 7 4 8
3 4 -4 -4 -7 -15 -12 -24 -12 -13 0 -13 -2 4 -15 16 -13 16 -14 2 -9 -14 5
-18 1 -18 -21 0 -22 -4 -26 -17 -21 -10 4 -14 4 -11 0 4 -3 1 -19 -8 -35 -8
-16 -12 -29 -8 -29 4 0 1 -6 -5 -13 -6 -8 -8 -17 -4 -20 3 -4 -2 -7 -13 -7
-10 0 -15 -4 -9 -8 14 -10 18 -35 4 -26 -8 5 -10 -2 -7 -25 2 -17 2 -31 -1
-31 -9 0 -6 -143 2 -157 4 -7 0 -16 -10 -22 -12 -7 -13 -10 -4 -11 11 0 11 -3
0 -17 -10 -11 -10 -14 -1 -9 6 4 12 2 12 -3 0 -6 -4 -11 -10 -11 -5 0 -10 -11
-10 -24 0 -24 -23 -41 -49 -37 -8 2 -12 -3 -8 -12 4 -11 0 -13 -14 -10 -11 3
-28 -2 -40 -13 -19 -17 -20 -17 -14 2 6 18 6 18 -8 1 -16 -19 -42 -24 -31 -5
4 7 3 8 -5 4 -6 -4 -9 -12 -6 -17 4 -5 1 -9 -5 -9 -6 0 -8 -5 -5 -10 3 -6 -2
-10 -11 -10 -10 0 -14 -3 -11 -7 11 -10 -32 -35 -46 -27 -7 5 -6 0 3 -11 9
-11 10 -16 3 -11 -8 4 -13 2 -13 -4 0 -6 -4 -8 -10 -5 -5 3 -10 -3 -10 -14 0
-11 -4 -23 -10 -26 -6 -4 -7 1 -4 12 3 10 -3 5 -14 -11 -12 -17 -19 -33 -16
-38 3 -4 -3 -5 -12 -1 -13 5 -15 3 -9 -7 6 -10 4 -12 -10 -6 -15 5 -16 4 -5
-9 7 -8 11 -15 9 -16 -2 0 -12 -2 -22 -4 -23 -4 -35 -15 -18 -15 7 0 9 -5 6
-10 -4 -6 -11 -7 -17 -4 -7 5 -9 1 -5 -9 4 -11 1 -17 -8 -17 -8 0 -15 -7 -15
-15 0 -7 -8 -19 -17 -24 -14 -8 -14 -10 -3 -11 11 0 11 -3 2 -12 -7 -7 -12
-20 -12 -31 0 -12 -4 -16 -12 -11 -9 5 -9 2 1 -9 10 -13 10 -17 1 -17 -10 0
-10 -3 -1 -14 9 -11 9 -16 0 -21 -8 -6 -7 -10 2 -16 8 -5 9 -9 3 -9 -6 0 -11
-7 -11 -15 0 -8 5 -15 11 -15 6 0 5 -4 -2 -9 -17 -10 -17 -22 -1 -32 10 -6 10
-11 -2 -25 -8 -10 -9 -15 -3 -11 7 4 14 0 18 -8 3 -10 -1 -15 -12 -16 -13 0
-12 -3 5 -11 12 -6 24 -17 27 -25 3 -8 1 -11 -4 -8 -6 3 -10 1 -10 -4 0 -6 9
-11 19 -11 14 0 18 -5 14 -20 -4 -14 0 -20 11 -20 10 0 13 -5 9 -17 -5 -12 -3
-14 7 -8 10 6 12 4 7 -8 -4 -11 -2 -14 9 -10 9 3 14 -2 14 -17 0 -11 4 -18 10
-15 5 3 10 -2 10 -11 0 -10 3 -15 6 -11 4 3 13 -1 21 -9 8 -8 19 -12 24 -9 5
4 9 -2 10 -12 0 -10 3 -13 6 -5 7 19 26 14 19 -6 -5 -14 -4 -14 9 2 9 11 15
14 15 7 0 -9 14 -12 45 -10 24 2 47 0 51 -4 4 -4 13 1 21 11 14 16 14 16 8 -3
-5 -15 -3 -17 6 -8 6 6 18 9 25 6 8 -3 14 -1 14 5 0 6 -6 13 -12 15 -8 3 -5 6
5 6 11 1 15 6 11 13 -4 7 -3 8 5 4 6 -4 9 -11 7 -15 -3 -4 1 -8 9 -8 10 0 11
5 4 18 -8 15 -6 17 7 12 12 -4 15 -3 10 5 -7 11 6 17 28 13 5 -1 3 6 -5 15 -9
12 -9 15 -1 10 7 -4 12 -2 12 5 0 9 3 9 14 0 11 -9 16 -9 22 0 4 7 3 9 -3 6
-6 -4 -14 0 -17 9 -3 8 -2 12 4 9 9 -5 14 7 12 26 -1 4 8 5 18 2 12 -3 20 0
20 6 0 7 5 9 13 5 8 -5 7 -2 -2 9 -12 16 -12 17 5 11 10 -4 16 -4 12 1 -9 10
31 47 43 39 5 -3 6 2 3 10 -3 9 -11 13 -17 9 -6 -3 -7 -1 -3 6 6 9 11 9 24 -1
12 -10 14 -10 8 0 -4 7 -2 12 4 12 6 0 8 4 5 10 -9 14 8 12 25 -2 8 -7 6 -3
-5 10 -11 13 -15 23 -10 22 22 -5 27 1 14 17 -12 15 -12 16 4 10 11 -4 16 -3
12 3 -3 6 -1 10 6 10 7 0 4 7 -7 16 -10 8 -14 13 -7 10 6 -4 14 -2 18 4 3 5 1
10 -5 10 -7 0 -8 7 -3 17 11 22 10 44 -1 62 -7 10 -5 12 4 6 9 -5 10 -2 5 14
-4 13 -2 21 5 21 6 0 8 5 3 13 -4 6 -8 18 -9 25 -2 10 1 11 12 1 12 -10 15
-10 12 2 -2 8 -7 17 -13 21 -6 5 -4 8 5 8 13 0 13 1 0 10 -10 6 -11 10 -2 10
6 0 12 9 12 19 0 11 5 23 10 26 6 3 10 12 10 18 0 7 -4 6 -10 -3 -6 -9 -10
-10 -10 -3 0 6 5 15 11 19 6 3 9 17 6 30 -4 21 -2 22 11 12 11 -9 14 -9 9 -1
-4 6 -3 14 3 18 7 4 7 12 0 25 -7 13 -7 21 2 26 7 5 8 3 3 -6 -5 -9 -4 -11 3
-6 7 4 12 18 12 32 0 14 4 22 10 19 6 -3 10 -1 10 5 0 6 5 8 10 5 6 -3 10 -1
10 4 0 6 -5 11 -11 11 -5 0 -7 5 -4 11 4 6 14 8 22 5 8 -3 11 -1 8 4 -3 6 -1
10 4 10 6 0 11 5 11 11 0 5 -5 7 -12 3 -7 -4 -8 -3 -4 4 4 7 16 12 28 12 17 0
18 2 8 15 -11 13 -10 14 5 8 15 -5 17 -3 12 12 -7 15 -5 16 9 4 14 -11 15 -10
12 7 -2 11 2 18 10 16 6 -1 12 5 12 14 0 9 5 12 13 8 8 -5 7 -2 -2 9 -12 15
-12 17 4 10 14 -5 17 -3 12 10 -3 8 -1 18 6 21 8 3 8 5 1 5 -8 1 -9 14 -4 41
4 22 5 42 2 45 -9 9 -8 55 1 55 4 0 5 5 1 12 -10 16 -11 108 -1 108 5 0 5 5 1
11 -11 18 -10 139 1 139 7 0 7 3 0 8 -5 4 -10 21 -10 37 0 17 5 33 10 37 7 5
7 8 0 8 -5 0 -10 18 -10 40 0 22 4 40 8 40 4 0 3 9 -3 20 -8 15 -8 20 2 20 9
0 9 3 -2 10 -8 5 -10 10 -3 10 6 0 9 9 6 20 -3 11 0 20 6 20 6 0 11 5 11 11 0
5 -4 8 -9 5 -10 -7 -9 20 2 30 4 4 7 16 7 26 0 10 5 18 10 18 7 0 7 7 -1 22
-10 18 -9 20 5 15 19 -7 21 4 4 21 -9 9 -9 12 0 12 7 0 12 6 11 13 -3 26 1 38
13 31 7 -5 8 -3 3 5 -4 7 2 22 15 36 14 15 18 25 11 30 -6 3 -11 11 -11 16 0
6 6 7 13 3 7 -5 7 -1 -3 12 -8 10 -10 16 -6 12 12 -10 39 29 31 42 -3 6 -2 10
4 10 6 0 7 7 4 17 -4 10 -2 14 4 10 7 -5 9 1 5 15 -4 16 -2 19 9 13 12 -8 12
-6 0 8 -12 16 -12 17 5 10 17 -6 18 -5 4 12 -9 11 -10 16 -2 11 7 -4 12 -1 13
8 2 25 4 30 13 45 7 10 5 12 -5 7 -8 -4 -6 -1 3 7 14 11 15 16 5 27 -9 9 -9
11 0 6 6 -3 14 -2 18 4 3 5 1 10 -5 10 -6 0 -8 5 -5 10 4 6 11 8 16 5 5 -3 6
1 3 9 -3 9 -11 13 -18 9 -6 -3 -3 3 7 14 11 12 14 24 9 27 -6 3 -8 16 -4 28 3
13 1 19 -5 15 -5 -3 -10 0 -10 8 0 8 4 12 8 10 10 -7 5 22 -6 32 -4 4 -5 2 0
-6 6 -10 4 -12 -4 -6 -7 4 -11 18 -8 32 3 18 1 23 -10 19 -17 -7 -13 1 65 128
30 50 67 114 81 141 14 28 29 53 34 56 5 3 8 9 8 13 -1 3 22 54 50 113 28 59
52 112 54 118 1 5 8 24 15 40 7 17 14 35 16 40 2 6 19 52 39 103 19 51 37 101
38 110 2 9 10 40 19 67 33 103 51 168 54 194 1 14 9 53 18 86 13 54 23 110 31
170 1 11 3 20 4 20 2 0 4 18 7 40 2 22 6 56 9 75 20 139 27 558 12 725 -15
169 -24 246 -31 252 -3 3 -1 15 5 26 6 10 7 17 2 14 -5 -3 -10 17 -11 44 -1
37 2 48 11 42 9 -5 9 -4 0 8 -9 11 -9 23 0 52 7 20 15 37 19 37 5 0 8 9 8 21
0 13 4 18 13 13 9 -5 9 -4 0 6 -8 9 -9 19 -3 30 7 13 4 25 -10 42 -15 20 -16
28 -7 38 9 10 9 11 0 6 -8 -4 -13 -1 -13 8 0 9 -4 16 -10 16 -5 0 -10 7 -10
16 0 10 -6 14 -14 11 -10 -4 -12 1 -9 16 4 18 3 19 -6 7 -9 -12 -11 -10 -11
11 0 15 -8 33 -17 40 -17 13 -17 13 -3 -6 14 -19 14 -19 -3 -6 -12 9 -14 17
-8 25 7 8 2 21 -14 41 -29 32 -30 36 -12 31 6 -1 9 -1 5 1 -5 3 -8 11 -8 19 0
8 -4 14 -10 14 -5 0 -9 3 -9 8 4 25 -2 42 -13 36 -8 -5 -7 0 2 11 8 10 10 16
4 12 -7 -4 -14 0 -18 8 -3 8 -1 17 4 20 5 3 7 12 4 20 -4 8 -10 12 -15 9 -5
-3 -9 -1 -9 5 0 5 5 13 10 16 6 4 4 12 -5 21 -8 9 -13 20 -10 25 4 5 0 9 -7 9
-9 0 -9 3 2 10 11 7 12 10 2 10 -9 0 -12 10 -10 28 2 21 -1 27 -14 26 -11 -1
-15 3 -11 9 11 19 10 45 -2 41 -6 -3 -11 5 -12 17 -2 18 0 19 15 8 9 -7 4 2
-13 20 -16 19 -25 31 -18 27 6 -3 10 0 9 6 -3 24 -17 38 -29 31 -9 -5 -9 -3 0
8 9 11 8 20 -2 39 -17 30 -19 43 -5 35 6 -3 7 1 4 9 -3 9 -10 14 -14 11 -4 -3
-8 17 -9 43 -2 98 -2 102 -13 96 -5 -4 -3 5 6 18 9 14 13 28 9 32 -11 11 -11
56 0 56 4 0 5 5 2 10 -4 6 -12 7 -18 3 -9 -5 -9 -3 -1 8 16 20 16 82 1 72 -8
-4 -7 -1 1 9 7 9 15 29 18 44 3 16 9 33 14 39 4 5 10 19 12 30 1 11 6 22 9 25
11 10 -3 80 -15 73 -6 -4 -5 1 3 10 11 13 11 17 1 17 -8 0 -11 3 -7 6 3 4 -9
20 -27 38 -19 17 -35 36 -37 41 -2 6 -7 9 -11 8 -5 -2 -8 2 -8 8 0 5 -5 7 -10
4 -6 -4 -10 -3 -9 2 3 20 -2 34 -11 28 -5 -3 -10 1 -10 9 0 9 -8 16 -17 16
-15 0 -16 2 -3 10 13 8 12 10 -2 10 -10 0 -18 7 -18 15 0 8 -4 15 -10 15 -5 0
-7 7 -4 15 5 11 2 13 -10 9 -11 -4 -16 0 -16 14 0 12 -8 26 -17 31 -10 6 -15
11 -10 11 4 0 1 14 -8 30 -9 17 -13 30 -10 30 6 0 -31 58 -45 70 -3 3 -11 16
-18 29 -11 19 -11 22 0 15 10 -6 10 -4 -1 9 -11 14 -11 20 -1 32 8 9 9 15 2
15 -6 0 -8 10 -5 23 3 12 7 35 10 51 4 21 8 25 15 15 7 -10 8 -7 5 9 -4 18 -2
22 10 18 13 -5 14 -4 3 9 -12 14 -7 20 14 16 5 -1 6 5 3 14 -4 8 -1 15 5 15 6
0 5 6 -3 17 -10 11 -10 14 -1 9 7 -4 12 -2 12 4 0 6 4 9 8 6 4 -2 9 4 9 15 1
12 -3 17 -9 13 -7 -4 -8 -2 -4 4 4 7 15 12 24 13 11 0 13 2 4 6 -10 4 -10 8 0
21 11 13 11 14 0 8 -11 -7 -12 -4 -4 11 6 11 10 43 8 72 -1 29 2 55 7 58 5 3
3 9 -4 14 -11 7 -11 9 -1 9 7 0 10 5 6 11 -11 18 -11 53 1 61 6 5 4 8 -5 8
-13 0 -13 1 0 10 12 8 13 11 1 19 -11 7 -11 9 0 14 8 3 10 6 4 6 -5 1 -9 23
-8 51 0 27 -3 50 -9 50 -5 0 -6 5 -2 12 5 7 2 9 -9 5 -9 -3 -18 -1 -21 6 -3 8
-5 8 -5 -2 -1 -11 -4 -11 -16 -1 -13 11 -14 10 -9 -5 6 -14 4 -16 -7 -10 -11
7 -12 6 -2 -7 11 -12 9 -18 -10 -34 l-22 -19 20 25 20 25 -27 -24 c-23 -20
-26 -27 -16 -40 7 -9 8 -13 4 -9 -12 10 -48 -50 -40 -64 5 -7 2 -8 -5 -4 -8 5
-14 0 -18 -14 -3 -12 -11 -19 -19 -16 -8 3 -13 2 -13 -2 3 -21 -2 -32 -13 -26
-6 4 -8 3 -5 -4 11 -17 -3 -41 -20 -35 -13 5 -15 1 -11 -19 4 -20 2 -25 -10
-20 -11 4 -14 1 -9 -11 4 -12 2 -14 -11 -10 -9 3 -14 3 -10 -2 4 -4 2 -15 -5
-23 -8 -11 -8 -14 0 -9 6 4 15 3 18 -3 4 -6 3 -10 -2 -9 -26 4 -44 -2 -37 -13
6 -9 3 -9 -9 0 -9 8 -20 11 -26 8 -5 -3 -7 3 -4 15 4 14 -1 25 -16 35 -11 8
-21 22 -21 30 0 10 -5 12 -12 8 -8 -5 -7 0 2 11 8 10 10 16 3 12 -6 -4 -15 -2
-18 4 -4 5 -13 8 -21 5 -8 -3 -13 -2 -13 2 4 22 -3 32 -22 32 -13 0 -18 4 -13
13 6 9 4 9 -8 -1 -13 -10 -17 -10 -21 3 -5 11 -12 13 -32 5 -20 -8 -27 -6 -32
6 -5 13 -7 13 -14 2 -6 -9 -9 -10 -9 -1 0 7 -7 10 -15 7 -8 -4 -23 0 -32 7
-15 12 -16 12 -10 -4 4 -11 3 -16 -3 -12 -6 3 -10 14 -10 23 0 15 -2 15 -10 2
-8 -13 -10 -12 -10 3 0 9 -5 17 -11 17 -5 0 -7 -4 -4 -10 10 -16 -2 -12 -21 7
-9 10 -22 18 -28 18 -25 2 -66 18 -66 26 0 5 -7 9 -15 9 -14 0 -20 12 -16 34
1 5 -7 6 -17 4 -15 -4 -18 0 -17 17 2 13 -3 22 -11 22 -7 0 -11 -4 -8 -9 8
-12 -10 -10 -24 4 -9 9 -15 9 -24 -1 -11 -10 -9 -11 7 -6 13 5 8 -4 -15 -24
-22 -19 -29 -31 -20 -31 13 0 13 -1 0 -10 -8 -5 -11 -10 -6 -10 6 0 1 -7 -10
-16 -15 -13 -16 -15 -2 -10 12 3 15 1 11 -9 -3 -8 -10 -12 -16 -8 -6 4 -8 -2
-5 -15 5 -16 2 -22 -10 -22 -15 0 -15 -2 -2 -10 14 -9 7 -14 -13 -11 -5 1 -5
-4 -1 -10 3 -6 0 -15 -7 -20 -11 -7 -11 -9 -1 -9 7 0 10 -5 7 -10 -4 -6 -11
-7 -17 -4 -7 5 -7 1 0 -12 7 -13 7 -21 -4 -29 -7 -5 -14 -28 -15 -50 -2 -22
-7 -46 -12 -52 -6 -9 -5 -13 2 -13 7 0 9 -5 4 -12 -4 -7 -8 -20 -8 -28 -1 -8
-2 -25 -3 -38 -1 -15 -6 -21 -14 -16 -7 5 -9 2 -5 -9 9 -25 -32 -12 -106 32
-36 22 -107 61 -158 87 -52 27 -101 56 -110 66 -9 10 -22 18 -28 18 -7 0 -9 5
-6 10 3 6 -4 10 -17 10 -18 0 -20 2 -8 10 12 8 10 10 -8 10 -13 0 -20 4 -17
10 3 6 -1 10 -10 10 -9 0 -13 5 -9 11 4 7 -1 7 -16 -1 -15 -8 -20 -8 -16 -1 7
10 -6 16 -27 12 -5 -1 -6 3 -2 9 3 5 1 10 -6 10 -6 0 -20 10 -30 22 -11 11
-19 17 -19 13 0 -4 -9 2 -20 15 -11 12 -17 28 -13 34 3 6 3 8 -2 4 -5 -5 -15
1 -22 12 -8 12 -20 17 -26 13 -7 -4 -5 2 3 12 8 10 10 16 3 12 -19 -12 -26 12
-9 29 22 21 20 30 -1 13 -16 -13 -17 -12 -5 3 8 10 23 20 34 24 16 5 18 8 7
15 -10 6 -10 9 -2 9 7 0 10 6 7 14 -3 7 2 20 10 29 17 16 22 32 8 23 -4 -2 -8
4 -8 14 0 15 3 17 16 7 8 -6 12 -7 8 -3 -4 5 -2 16 5 24 9 13 9 14 0 8 -19
-11 -16 5 5 21 11 10 12 12 2 8 -8 -4 -6 1 4 9 18 15 15 20 -9 17 -5 -1 0 7
12 18 12 10 19 21 16 25 -4 3 0 6 8 6 12 0 12 2 -1 10 -12 8 -12 10 3 16 9 3
17 10 17 16 0 5 -6 6 -12 3 -7 -4 -2 3 11 14 13 12 19 21 14 21 -5 0 -9 9 -9
19 0 11 4 17 8 15 4 -3 8 0 8 5 0 6 -4 11 -9 11 -5 0 -4 11 2 24 7 13 14 23
17 21 8 -5 29 22 23 29 -4 3 -2 6 4 6 6 0 13 7 16 14 4 11 1 13 -11 9 -14 -6
-15 -5 -2 9 8 9 19 13 24 11 5 -3 6 0 4 8 -3 8 -12 13 -19 11 -8 -2 -4 6 9 18
24 23 29 36 10 24 -9 -6 -9 -3 0 9 8 9 11 21 7 26 -4 7 1 8 12 4 16 -6 17 -5
3 12 -14 17 -14 18 5 8 15 -9 22 -8 32 5 8 11 12 13 13 4 0 -16 38 4 58 31 10
13 18 15 32 7 16 -9 19 -8 13 7 -3 10 -13 27 -22 38 -13 16 -11 15 10 -3 19
-16 26 -19 26 -8 0 8 -4 13 -8 10 -4 -2 -12 3 -17 13 -9 15 -12 15 -29 3 -10
-8 -15 -11 -11 -6 9 11 -16 36 -35 36 -20 0 -35 21 -32 43 3 14 0 16 -10 7
-15 -13 -16 5 -1 29 7 10 6 12 -4 6 -10 -6 -12 -4 -6 10 6 16 4 16 -10 4 -16
-13 -16 -12 -5 9 9 16 9 22 0 22 -8 0 -9 3 0 13 8 11 6 18 -9 32 -13 12 -17
21 -10 25 7 4 5 12 -6 21 -16 12 -17 12 -9 -1 6 -12 6 -13 -6 -2 -12 11 -12
14 0 21 11 7 9 10 -8 16 -18 5 -20 9 -10 21 9 12 9 13 -3 9 -8 -3 -21 2 -29
12 -13 16 -12 17 4 4 15 -12 17 -12 11 3 -3 9 -12 16 -20 16 -8 0 -14 9 -14
20 0 22 -25 28 -33 8 -4 -10 -6 -10 -6 -1 -1 6 3 14 8 18 6 3 -4 21 -22 40
-22 24 -34 31 -39 22 -5 -8 -8 -4 -8 11 0 12 -5 22 -11 22 -5 0 -7 6 -3 13 5
7 0 6 -11 -3 -11 -9 -16 -10 -11 -2 4 7 2 12 -6 12 -7 0 -19 9 -26 21 -9 14
-20 19 -33 16 -10 -3 -17 -2 -14 3 7 11 -43 42 -55 35 -6 -3 -10 -2 -10 4 0 6
-7 7 -17 4 -9 -4 -14 -2 -11 3 10 15 -132 11 -155 -5z m-386 -304 c-10 -9 -11
-8 -5 6 3 10 9 15 12 12 3 -3 0 -11 -7 -18z m-51 -66 c0 -5 -7 -12 -16 -15
-14 -5 -15 -4 -4 9 14 17 20 19 20 6z m2945 -3361 c3 -5 1 -10 -4 -10 -6 0
-11 5 -11 10 0 6 2 10 4 10 3 0 8 -4 11 -10z m-525 -3555 c-7 -9 -15 -13 -17
-11 -7 7 7 26 19 26 6 0 6 -6 -2 -15z m-500 -665 c0 -5 -5 -10 -11 -10 -5 0
-7 5 -4 10 3 6 8 10 11 10 2 0 4 -4 4 -10z m-960 -874 c0 -3 -4 -8 -10 -11 -5
-3 -10 -1 -10 4 0 6 5 11 10 11 6 0 10 -2 10 -4z"/>
<path d="M6315 9030 c-3 -5 -1 -10 4 -10 6 0 11 5 11 10 0 6 -2 10 -4 10 -3 0
-8 -4 -11 -10z"/>
<path d="M5170 8760 c0 -5 5 -10 11 -10 5 0 7 5 4 10 -3 6 -8 10 -11 10 -2 0
-4 -4 -4 -10z"/>
<path d="M8245 5780 c3 -5 8 -10 11 -10 2 0 4 5 4 10 0 6 -5 10 -11 10 -5 0
-7 -4 -4 -10z"/>
<path d="M5681 1324 c-7 -8 -11 -17 -9 -20 3 -2 13 5 23 16 10 11 14 20 9 20
-5 -1 -15 -8 -23 -16z"/>
<path d="M6999 1323 c-13 -16 -12 -17 4 -4 16 13 21 21 13 21 -2 0 -10 -8 -17
-17z"/>
<path d="M5503 645 c0 -8 4 -12 9 -9 5 3 6 10 3 15 -9 13 -12 11 -12 -6z"/>
</g>
</svg>
